<?xml version="1.0" encoding="utf-8"?>
<!-- Generator: Adobe Illustrator 21.1.0, SVG Export Plug-In . SVG Version: 6.00 Build 0)  -->
<svg version="1.1" id="cam" xmlns="http://www.w3.org/2000/svg" xmlns:xlink="http://www.w3.org/1999/xlink" x="0px" y="0px"
	 viewBox="0 0 161.9 161.9" enable-background="new 0 0 161.9 161.9" xml:space="preserve">
<circle id="bkg_4_" fill="#1D9687" cx="81" cy="81" r="81"/>
<g id="camera">
	<path fill="#FDD08C" d="M111,58.8h-7.7c-0.8,0-1.3-0.4-1.6-1.1l-1.8-6.2c-0.6-1.8-2.3-3-4.3-3h-18c-1.9,0-3.7,1.2-4.3,3.1l-1.7,6
		c-0.3,0.9-1.1,1.1-1.7,1.1H49.6c-4.2,0-7.7,3.4-7.7,7.7V100c0,4.2,3.5,7.5,7.7,7.5H111c4.3,0,7.7-3.4,7.7-7.5V66.5
		C118.7,62.3,115.3,58.8,111,58.8z M116.2,100c0,2.7-2.3,5-5.2,5H49.6c-2.9,0-5.2-2.2-5.2-5V66.5c0-2.8,2.3-5.1,5.1-5.1H70
		c2,0,3.5-1.1,4.1-2.9l1.7-6c0.3-0.8,1-1.3,1.9-1.3h18c0.8,0,1.6,0.5,1.8,1.2l1.8,6.2c0.6,1.8,2.1,2.9,4,2.9h7.7
		c2.8,0,5.1,2.3,5.1,5.1V100z"/>
	<path fill="#FDD08C" d="M50.8,53.7H56c0.7,0,1.3-0.6,1.3-1.3c0-0.7-0.6-1.3-1.3-1.3h-5.1c-0.7,0-1.3,0.6-1.3,1.3
		C49.6,53.1,50.1,53.7,50.8,53.7z"/>
	<path fill="#FDD08C" d="M56,66.5h-5.1c-0.7,0-1.3,0.6-1.3,1.3c0,0.7,0.6,1.3,1.3,1.3H56c0.7,0,1.3-0.6,1.3-1.3
		C57.2,67.1,56.7,66.5,56,66.5z"/>
	<path fill="#FDD08C" d="M86.7,71.6c-6.4,0-11.5,5.2-11.5,11.5s5.2,11.5,11.5,11.5c6.4,0,11.5-5.2,11.5-11.5S93.1,71.6,86.7,71.6z
		 M86.7,92.1c-4.9,0-9-4-9-9s4-9,9-9s9,4,9,9S91.6,92.1,86.7,92.1z"/>
	<path fill="#FDD08C" d="M86.7,64c-10.6,0-19.2,8.6-19.2,19.2s8.6,19.2,19.2,19.2s19.2-8.6,19.2-19.2S97.3,64,86.7,64z M86.7,99.8
		c-9.2,0-16.7-7.5-16.7-16.7s7.5-16.7,16.7-16.7s16.7,7.5,16.7,16.7S95.9,99.8,86.7,99.8z"/>
</g>
<g id="line_1_">
	
		<circle fill="none" stroke="#FDD08C" stroke-width="4" stroke-miterlimit="10" stroke-dasharray="11.7807,11.7807" cx="81.6" cy="81.6" r="67.5"/>
</g>
</svg>
