<?xml version="1.0" encoding="utf-8"?>
<!-- Generator: Adobe Illustrator 21.1.0, SVG Export Plug-In . SVG Version: 6.00 Build 0)  -->
<svg version="1.1" id="like" xmlns="http://www.w3.org/2000/svg" xmlns:xlink="http://www.w3.org/1999/xlink" x="0px" y="0px"
	 viewBox="0 0 161.9 161.9" enable-background="new 0 0 161.9 161.9" xml:space="preserve">
<circle id="bkg_8_" fill="#1D9687" cx="80.7" cy="81.2" r="81"/>
<rect x="43.8" y="32" fill="#1D9687" stroke="#FDD08C" stroke-width="3" stroke-miterlimit="10" width="48.4" height="68.1"/>
<rect x="51" y="41.6" fill="#1D9687" stroke="#FDD08C" stroke-width="3" stroke-miterlimit="10" width="48.4" height="68.1"/>
<rect x="60.6" y="50.4" fill="#1D9687" stroke="#FDD08C" stroke-width="3" stroke-miterlimit="10" width="48.4" height="68.1"/>
<linearGradient id="eye_whites_1_" gradientUnits="userSpaceOnUse" x1="84.8048" y1="88.5943" x2="84.8048" y2="65.5152">
	<stop  offset="0" style="stop-color:#FFFFFF;stop-opacity:0.7"/>
	<stop  offset="0.1456" style="stop-color:#FBFBFB;stop-opacity:0.7437"/>
	<stop  offset="0.3011" style="stop-color:#EEEEEE;stop-opacity:0.7903"/>
	<stop  offset="0.4613" style="stop-color:#D8D9D9;stop-opacity:0.8384"/>
	<stop  offset="0.6246" style="stop-color:#BBBBBC;stop-opacity:0.8874"/>
	<stop  offset="0.7904" style="stop-color:#949596;stop-opacity:0.9371"/>
	<stop  offset="0.9561" style="stop-color:#666768;stop-opacity:0.9868"/>
	<stop  offset="1" style="stop-color:#58595B"/>
</linearGradient>
<path id="eye_whites_2_" fill="url(#eye_whites_1_)" d="M64.2,73.7c0,0,4.5,14.6,20.9,14.9s20.3-16.1,20.3-16.4
	C105.4,71.8,85.2,56.4,64.2,73.7z"/>
<path id="green_2_" fill="#339F65" d="M73.2,67.9c0,0-3,11.6,11.9,13c0,0,11.3,1.4,11.5-13.5C96.6,67.4,89.1,63.1,73.2,67.9z"/>
<path d="M78,67.2c0,0-1.3,11.5,9.3,8.9c0,0,5.8-2,4.8-10C92.1,66.1,78.9,64.3,78,67.2z"/>
</svg>
