<?xml version="1.0" encoding="utf-8"?>
<!-- Generator: Adobe Illustrator 21.1.0, SVG Export Plug-In . SVG Version: 6.00 Build 0)  -->
<svg version="1.1" id="skullJoin" xmlns="http://www.w3.org/2000/svg" xmlns:xlink="http://www.w3.org/1999/xlink" x="0px" y="0px"
	 viewBox="0 0 161.94 161.94" enable-background="new 0 0 161.94 161.94" xml:space="preserve">
<circle id="bkg_3_" fill="#1D9687" cx="80.97" cy="80.97" r="80.97"/>
<path id="flatSkull" fill="#BFB980" d="M118.561,90.862l0.931-5.938l-2.352-17.064c0,0,2.325-19.008,0.892-26.903
	c-1.433-7.895-15.85-18.784-15.85-18.784C63.941,7.681,48.547,37.827,48.547,37.827c-7.078,27.088,0,33.757-2.314,35.935
	c-2.314,2.178-1.361,11.162-1.361,11.162c0,4.9-5.717,4.22-5.717,4.22c2.927,17.355,8.882,17.593,8.882,17.593
	c7.861-3.233,11.777,5.494,11.777,5.494l-0.567,2.489l0.276,2.328l-0.903,2.995l1.194,0.613c-0.371,2.484,0.462,5.173,0.462,5.173
	l0.889-0.721l0.36,2.729l1.52,1.208l0.868-0.408c0.459,2.399,2.324,4.475,2.324,4.475l1.546,2.671l1.796-0.493l2.929,2.787
	c3.592-0.105,2.902-3.883,2.902-3.883l-0.114-2.988l1.633,1.906c-1.889,3.964-0.812,7.183-0.812,7.183l4.512-0.212
	c0,0,1.149-1.135,0.86-4.929c-0.289-3.794,1.509-0.584,1.509-0.584l-0.134,1.751l-0.556,2.088l1.92,2.135l2.952-0.653
	c0,0,0.723-1.759,0.297-5.281c-0.425-3.522,0.987-1.838,0.755-0.417c-0.232,1.421,1.014,4.772,1.014,4.772
	c2.978,0.017,3.199-2.645,3.199-2.645l1.565,0.399l1.565-2.859l0.651-0.34l0.778-2.722l1.293-0.068l1.361-2.927v-0.613l0.408-0.802
	l0.308-2.664c0.853-1.221,1.216-6.47,1.216-6.47c3.987-9.657,10.861-6.174,10.861-6.174c7.145-4.609,8.781-17.17,8.781-17.17
	C116.471,92.547,118.561,90.862,118.561,90.862z"/>
<g id="line">
	
		<circle fill="none" stroke="#FDD08C" stroke-width="4" stroke-miterlimit="10" stroke-dasharray="11.7807,11.7807" cx="82.043" cy="80.504" r="67.5"/>
</g>
<g id="details">
	<linearGradient id="SVGID_1_" gradientUnits="userSpaceOnUse" x1="39.5167" y1="91.696" x2="43.8092" y2="71.8292">
		<stop  offset="0" style="stop-color:#FFFFFF"/>
		<stop  offset="1" style="stop-color:#231F20"/>
	</linearGradient>
	<line fill="url(#SVGID_1_)" x1="39.155" y1="89.144" x2="45.025" y2="70.427"/>
	<path fill="#8F8B60" d="M31.626,95.893"/>
	<g>
		<path fill="#FAF9F5" d="M105.581,103.041c1.374-0.367,2.667-0.904,3.884-1.534c1.208-0.65,2.322-1.446,3.253-2.416
			c0.945-0.953,1.732-2.072,2.274-3.323c0.601-1.232,0.924-2.585,1.258-3.975c0.014,0.706,0.029,1.429-0.044,2.146
			c-0.129,0.707-0.206,1.44-0.489,2.117c-0.429,1.402-1.26,2.678-2.285,3.734C111.358,101.906,108.428,103.054,105.581,103.041z"/>
	</g>
	<g>
		<path fill="#FAF9F5" d="M85.299,83.212c0.394,1.369,0.483,2.737,0.5,4.106c-0.015,1.369-0.103,2.737-0.5,4.106
			c-0.396-1.369-0.485-2.737-0.5-4.106C84.817,85.949,84.905,84.58,85.299,83.212z"/>
	</g>
	<g>
		<path fill="#FAF9F5" d="M93.262,116.564c-0.226-1.636-0.213-3.312,0.047-4.964c0.252-1.65,0.764-3.304,1.723-4.76
			c0.49-0.715,1.099-1.374,1.837-1.87c0.739-0.491,1.593-0.82,2.461-0.91c1.743-0.226,3.422,0.287,4.885,1.018
			c-1.599-0.372-3.244-0.574-4.75-0.249c-1.518,0.302-2.763,1.289-3.604,2.57c-0.866,1.277-1.397,2.802-1.789,4.355
			C93.695,113.316,93.423,114.924,93.262,116.564z"/>
	</g>
	<g>
		<path fill="#FAF9F5" d="M46.608,92.751c0.138,1.569,0.445,3.161,1.215,4.491c0.374,0.661,0.872,1.246,1.499,1.607
			c0.615,0.361,1.371,0.496,2.132,0.582c1.534,0.137,3.109,0.059,4.74,0.184c0.812,0.075,1.658,0.197,2.472,0.613
			c0.829,0.399,1.463,1.277,1.637,2.167l-0.042-0.119c0.244,0.435,0.825,0.574,1.435,0.283c0.614-0.277,1.185-0.786,1.718-1.316
			c0.276-0.294,0.474-0.532,0.823-0.878c0.323-0.304,0.79-0.631,1.38-0.593c0.579,0.046,0.998,0.388,1.292,0.709
			c0.287,0.339,0.521,0.695,0.711,1.062c0.757,1.468,1.175,3.01,1.559,4.552c0.335,1.554,0.629,3.112,0.792,4.688
			c-0.385-1.535-0.773-3.064-1.264-4.559c-0.47-1.491-0.979-3-1.755-4.301c-0.371-0.62-0.916-1.273-1.381-1.277
			c-0.46-0.037-0.913,0.622-1.47,1.248c-0.57,0.592-1.186,1.168-2.012,1.559c-0.417,0.178-0.913,0.316-1.448,0.208
			c-0.541-0.117-0.983-0.427-1.273-0.937c-0.018-0.031-0.03-0.063-0.037-0.096l-0.005-0.023c-0.144-0.667-0.513-1.198-1.117-1.514
			c-0.6-0.323-1.355-0.447-2.109-0.536c-1.524-0.177-3.131-0.107-4.744-0.364c-0.798-0.138-1.635-0.325-2.368-0.809
			c-0.721-0.477-1.244-1.176-1.597-1.915C46.719,95.962,46.525,94.333,46.608,92.751z"/>
	</g>
	<g>
		<path fill="#FAF9F5" d="M104.215,74.443c1.074-0.335,2.207-0.443,3.331-0.431c1.128,0.003,2.253,0.167,3.351,0.436
			c1.095,0.28,2.167,0.672,3.155,1.224c1.004,0.517,1.904,1.223,2.691,2.013c-1.031-0.453-1.996-0.94-3.017-1.304
			c-1.007-0.386-2.029-0.715-3.073-0.964C108.572,74.878,106.438,74.601,104.215,74.443z"/>
	</g>
	<g>
		<path fill="#FAF9F5" d="M48.931,75.262c0.741-1.248,1.858-2.262,3.087-3.056c1.232-0.805,2.611-1.364,4.023-1.761
			c1.423-0.369,2.885-0.544,4.34-0.546c0.727-0.015,1.452,0.076,2.172,0.125c0.716,0.127,1.428,0.239,2.129,0.404
			c-0.725,0.06-1.436,0.046-2.147,0.086c-0.709,0.068-1.416,0.083-2.114,0.164c-0.697,0.104-1.398,0.136-2.081,0.294
			c-0.692,0.099-1.368,0.266-2.042,0.439c-1.342,0.359-2.648,0.842-3.891,1.468C51.177,73.524,49.97,74.264,48.931,75.262z"/>
	</g>
	<g>
		<path fill="#FAF9F5" d="M87.75,93.273c1.014,0.835,1.807,1.917,2.476,3.043c0.675,1.13,1.195,2.341,1.645,3.57
			c0.442,1.234,0.764,2.505,1.008,3.786c0.121,0.641,0.196,1.29,0.28,1.935c0.034,0.654,0.097,1.301,0.098,1.954
			c-0.403-1.244-0.77-2.477-1.135-3.705c-0.393-1.219-0.746-2.445-1.191-3.637c-0.418-1.201-0.881-2.384-1.393-3.548
			C88.999,95.522,88.468,94.358,87.75,93.273z"/>
	</g>
	<g>
		<path fill="none" d="M83.929,121.54"/>
	</g>
	<g>
		<path fill="#FAF9F5" d="M82.671,120.655c0.621,0.868,0.943,1.736,1.175,2.603c0.22,0.868,0.322,1.736,0.324,2.603
			c0.002,0.868-0.1,1.736-0.32,2.603c-0.231,0.868-0.555,1.736-1.179,2.603c-0.625-0.868-0.948-1.736-1.179-2.603
			c-0.22-0.868-0.322-1.736-0.32-2.603c0.002-0.868,0.104-1.736,0.324-2.603C81.728,122.391,82.05,121.523,82.671,120.655z"/>
	</g>
	<g>
		<path fill="#FAF9F5" d="M77.132,138.922c0.734-0.405,1.265-0.701,1.539-0.974c0.117-0.15,0.166-0.244,0.142-0.311
			c-0.01-0.029-0.001-0.032-0.02-0.069c0.001-0.007,0.017-0.022,0.016-0.079c0.049-0.038,0.071-0.222,0.163-0.362
			c0.038-0.207,0.149-0.392,0.222-0.653c0.188-0.504,0.377-1.092,0.84-1.827c0.74,0.402,1.216,0.949,1.509,1.612
			c0.165,0.317,0.208,0.722,0.265,1.098c-0.018,0.432-0.026,0.845-0.251,1.333c-0.089,0.227-0.226,0.458-0.416,0.676
			c-0.172,0.218-0.387,0.402-0.634,0.547c-0.479,0.304-1.009,0.381-1.459,0.354C78.163,140.157,77.505,139.693,77.132,138.922z"/>
	</g>
	<g>
		<path fill="#FAF9F5" d="M83.929,139.143c0.396-0.195,0.691-0.34,0.918-0.523c0.218-0.179,0.321-0.359,0.308-0.475
			c-0.027-0.141-0.093-0.148-0.11-0.252c-0.011-0.061,0-0.231,0.029-0.386c0.036-0.372,0.146-0.848,0.278-1.409
			c0.176-0.556,0.349-1.173,0.833-1.905c0.729,0.436,1.207,0.975,1.508,1.608c0.314,0.617,0.451,1.345,0.347,2.157
			c-0.09,0.424-0.189,0.854-0.509,1.308c-0.273,0.437-0.802,0.848-1.347,0.993C85.04,140.5,84.25,139.921,83.929,139.143z"/>
	</g>
	<g>
		<path fill="#FAF9F5" d="M89.859,137.882c0.387-0.222,0.451-0.523,0.388-0.723c-0.056-0.213-0.116-0.336-0.164-0.558
			c-0.092-0.394-0.108-0.828-0.099-1.334c0.024-0.488,0.116-1.015,0.292-1.575c0.207-0.559,0.443-1.15,1.003-1.806
			c0.679,0.496,1.091,1.05,1.35,1.649c0.265,0.594,0.386,1.228,0.349,1.895c-0.024,0.649-0.224,1.378-0.722,2.065
			c-0.237,0.324-0.639,0.699-1.144,0.844C90.593,138.488,90.019,138.309,89.859,137.882z"/>
	</g>
	<g>
		<path fill="#FAF9F5" d="M93.255,134.91c0.318-0.253,0.54-0.442,0.654-0.656c0.131-0.195,0.037-0.372-0.102-0.392
			c-0.141-0.001-0.236,0.014-0.275-0.039c-0.013,0.005-0.044-0.094-0.057-0.131c-0.003-0.041-0.012-0.113-0.037-0.196l-0.032-0.533
			c0.014-0.198,0.014-0.421,0.045-0.666c0.088-0.489,0.179-1.035,0.56-1.743c0.756,0.191,1.28,0.521,1.666,0.963
			c0.201,0.212,0.36,0.451,0.482,0.729c0.064,0.135,0.111,0.275,0.167,0.414l0.09,0.484c0.019,0.157,0.034,0.328,0.016,0.531
			c-0.031,0.205-0.013,0.355-0.098,0.597c-0.126,0.416-0.362,0.934-0.875,1.262c-0.484,0.318-1.055,0.349-1.412,0.178
			C93.677,135.537,93.406,135.295,93.255,134.91z"/>
	</g>
	<g>
		<path fill="#FAF9F5" d="M70.966,135.42c0.873,0.099,1.541,0.289,2.021,0.317c0.215,0.014,0.402-0.057,0.187-0.129
			c-0.094-0.024-0.273,0.022-0.36,0.073c-0.094,0.058-0.104,0.097-0.101,0.065c0.07-0.101,0.304-0.659,0.545-1.193
			c0.265-0.559,0.576-1.177,1.17-1.851c0.653,0.609,0.996,1.276,1.184,2c0.146,0.736,0.239,1.495-0.298,2.535
			c-0.148,0.249-0.361,0.548-0.711,0.8c-0.341,0.243-0.83,0.422-1.246,0.404c-0.866-0.024-1.288-0.402-1.616-0.711
			C71.139,137.061,70.901,136.314,70.966,135.42z"/>
	</g>
	<g>
		<path fill="#FAF9F5" d="M97.959,129.448c-0.621-0.153-0.943-0.305-1.175-0.458c-0.22-0.153-0.322-0.305-0.324-0.458
			c-0.002-0.153,0.1-0.305,0.32-0.458c0.231-0.153,0.555-0.305,1.179-0.458c0.625,0.153,0.948,0.305,1.179,0.458
			c0.22,0.153,0.322,0.305,0.32,0.458c-0.002,0.153-0.104,0.305-0.324,0.458C98.901,129.143,98.579,129.296,97.959,129.448z"/>
	</g>
	<g>
		<path fill="#FAF9F5" d="M67.08,133.379c0.408,0.051,0.697,0.167,0.994,0.279c0.282,0.12,0.521,0.264,0.738,0.421l-1.031-0.608
			c0.281-0.136,0.562-0.211,0.843-0.267l-1.311,0.838c0.158-0.567,0.427-1.083,0.862-1.522c0.217-0.22,0.47-0.423,0.778-0.601
			c0.319-0.173,0.656-0.337,1.134-0.436c0.234,0.428,0.328,0.792,0.403,1.147c0.064,0.35,0.074,0.674,0.047,0.982
			c-0.053,0.616-0.272,1.155-0.601,1.643l-0.279,0.413c-0.234,0.346-0.646,0.501-1.032,0.425c-0.281-0.055-0.562-0.131-0.843-0.267
			l-0.922-0.445c-0.065-0.032-0.105-0.095-0.109-0.163c-0.017-0.267-0.011-0.546,0.037-0.849
			C66.851,134.058,66.906,133.751,67.08,133.379z"/>
	</g>
	<g>
		<path fill="#FAF9F5" d="M66.236,131.101c-0.535-0.347-0.789-0.594-0.958-0.81c-0.158-0.212-0.205-0.384-0.157-0.523
			c0.047-0.139,0.193-0.242,0.449-0.305c0.267-0.06,0.621-0.088,1.258-0.015c0.539,0.349,0.794,0.595,0.962,0.811
			c0.158,0.212,0.205,0.384,0.153,0.521c-0.051,0.137-0.197,0.24-0.453,0.304C67.223,131.144,66.87,131.173,66.236,131.101z"/>
	</g>
	<g>
		<path fill="#FAF9F5" d="M64.622,128.21c-0.432-0.457-0.626-0.733-0.75-0.954c-0.114-0.214-0.134-0.356-0.074-0.436
			c0.059-0.081,0.202-0.098,0.437-0.044c0.245,0.061,0.562,0.178,1.119,0.478c0.435,0.46,0.63,0.736,0.753,0.957
			c0.113,0.213,0.134,0.356,0.071,0.434c-0.062,0.079-0.205,0.096-0.441,0.042C65.492,128.624,65.175,128.508,64.622,128.21z"/>
	</g>
</g>
<g id="skullHoles">
	<path fill="#1D9687" d="M74.784,77.235c0,0,4.186,16.199-4.288,18.526S58.95,96.979,58.95,96.979s-8.293-3.237-7.136-13.161
		l-2.883-5.381c0,0,3.166-5.238,6.385-5.747c3.219-0.509,7.059-0.97,7.059-0.97l4.454,0.663c0,0,4.088-0.012,5.4,1.413
		C73.541,75.221,74.784,77.235,74.784,77.235z"/>
	<path fill="#1D9687" d="M91.179,88.472c0,0-0.28-4.578,1.812-7.257c1.768-2.265,6.75-5.263,6.75-5.263l8.142,0.193l4.394,1.021
		l4.365,3.131l0.624,3.369l-1.418,4.266c0,0-0.848,8.845-11.155,11.579C104.692,99.511,92.24,98.849,91.179,88.472z"/>
	<path fill="#1D9687" d="M81.413,114.526c0,0-8.786,1.745-7.758-6.041c0,0,0.359-4.723,3.212-6.395l3.17-6.512l3.893-2.304
		l3.821,2.039l3.531,6.11l0.96,4.349v4.878l-0.96,3.362l-1.761,1.137c0,0-5.632,0.961-6.287-1.137L81.413,114.526z"/>
</g>
<text id="joinText" transform="matrix(1 0 0 1 56.8611 65.1112)" fill="#FFFFFF" font-family="'MyanmarText-Bold'" font-size="23.0826px">JOIN</text>
</svg>
