<?xml version="1.0" encoding="utf-8"?>
<!-- Generator: Adobe Illustrator 21.1.0, SVG Export Plug-In . SVG Version: 6.00 Build 0)  -->
<svg version="1.1" id="like" xmlns="http://www.w3.org/2000/svg" xmlns:xlink="http://www.w3.org/1999/xlink" x="0px" y="0px"
	 viewBox="0 0 161.9 161.9" enable-background="new 0 0 161.9 161.9" xml:space="preserve">
<circle id="bkg_7_" fill="#1D9687" cx="81.5" cy="81.6" r="81"/>
<path id="skullBkg" fill="#BFB980" d="M117.8,92.2l0.9-5.9l-2.4-17.1c0,0,2.3-19,0.9-26.9c-1.4-7.9-15.8-18.8-15.8-18.8
	C63.2,9,47.8,39.1,47.8,39.1c-7.1,27.1,0,33.8-2.3,35.9c-2.3,2.2-1.4,11.2-1.4,11.2c0,4.9-5.7,4.2-5.7,4.2
	c2.9,17.4,8.9,17.6,8.9,17.6c7.9-3.2,11.8,5.5,11.8,5.5l-0.6,2.5l0.3,2.3l-0.9,3L59,122c-0.4,2.5,0.5,5.2,0.5,5.2l0.9-0.7l0.4,2.7
	l1.5,1.2l0.9-0.4c0.5,2.4,2.3,4.5,2.3,4.5l1.5,2.7l1.8-0.5l2.9,2.8c3.6-0.1,2.9-3.9,2.9-3.9l-0.1-3l1.6,1.9c-1.9,4-0.8,7.2-0.8,7.2
	l4.5-0.2c0,0,1.1-1.1,0.9-4.9c-0.3-3.8,1.5-0.6,1.5-0.6l-0.1,1.8l-0.6,2.1l1.9,2.1l3-0.7c0,0,0.7-1.8,0.3-5.3
	c-0.4-3.5,1-1.8,0.8-0.4c-0.2,1.4,1,4.8,1,4.8c3,0,3.2-2.6,3.2-2.6l1.6,0.4l1.6-2.9l0.7-0.3l0.8-2.7l1.3-0.1l1.4-2.9v-0.6l0.4-0.8
	l0.3-2.7c0.9-1.2,1.2-6.5,1.2-6.5c4-9.7,10.9-6.2,10.9-6.2c7.1-4.6,8.8-17.2,8.8-17.2C115.7,93.9,117.8,92.2,117.8,92.2z"/>
<g id="face">
	<path fill="#1D9687" d="M53.3,70.7c0-2.6,1.5-4.9,3.5-5.3c0.2,0,0.4-0.1,0.7-0.1c0.9,0,1.7,0.3,2.4,0.9c1.1,0.9,1.8,2.5,1.8,4.1
		c0,0.8,0.6,1.4,1.4,1.4s1.4-0.6,1.4-1.4c0-1.6,0.7-3.2,1.8-4.1c0.9-0.7,2-1,3.1-0.8c2,0.4,3.5,2.7,3.5,5.5c0,1.3-0.5,2.7-1.3,3.6
		l-8.5,9.7l-8.5-9.7C53.8,73.5,53.3,72.2,53.3,70.7z M63.1,87.6c0.4,0,0.8-0.2,1-0.5l9.5-10.9c1.3-1.5,2-3.4,2-5.6
		c0-3.9-2.5-7.4-5.8-8c-1.9-0.4-3.8,0.2-5.4,1.4c-0.5,0.4-1,1-1.4,1.6c-0.4-0.6-0.9-1.1-1.4-1.6c-1.5-1.3-3.4-1.8-5.4-1.4
		c-3.3,0.6-5.8,4-5.8,8.2c0,2,0.7,4,2,5.4L62,87.2C62.3,87.5,62.7,87.6,63.1,87.6z"/>
	<path fill="#1D9687" d="M106.1,62.7c-1.9-0.4-3.8,0.2-5.4,1.4c-0.5,0.4-1,1-1.4,1.6c-0.4-0.6-0.9-1.1-1.4-1.6
		c-1.5-1.3-3.4-1.8-5.4-1.4c-3.3,0.6-5.8,4-5.8,8.2c0,2,0.7,4,2,5.4l9.5,10.9c0.3,0.3,0.6,0.5,1,0.5s0.8-0.2,1-0.5l9.5-10.9
		c1.3-1.5,2-3.4,2-5.6C111.9,66.7,109.4,63.3,106.1,62.7z M107.8,74.5l-8.5,9.7l-8.5-9.7c-0.8-0.9-1.3-2.2-1.3-3.8
		c0-2.6,1.5-4.9,3.5-5.3c0.2,0,0.4-0.1,0.7-0.1c0.9,0,1.7,0.3,2.4,0.9c1.1,0.9,1.8,2.5,1.8,4.1c0,0.8,0.6,1.4,1.4,1.4
		c0.8,0,1.4-0.6,1.4-1.4c0-1.6,0.7-3.2,1.8-4.1c0.9-0.7,2-1,3.1-0.8c2,0.4,3.5,2.7,3.5,5.5C109.1,72.2,108.6,73.5,107.8,74.5z"/>
	<path fill="#1D9687" d="M99.3,93.2c-0.8,0-1.4,0.6-1.4,1.4c0,5.3-7.7,9.8-16.7,9.8s-16.7-4.5-16.7-9.8c0-0.8-0.6-1.4-1.4-1.4
		s-1.4,0.6-1.4,1.4c0,7,8.6,12.5,19.5,12.5s19.5-5.5,19.5-12.5C100.7,93.9,100.1,93.2,99.3,93.2z"/>
</g>
</svg>
