<?xml version="1.0" encoding="utf-8"?>
<!-- Generator: Adobe Illustrator 21.1.0, SVG Export Plug-In . SVG Version: 6.00 Build 0)  -->
<svg version="1.1" id="cam" xmlns="http://www.w3.org/2000/svg" xmlns:xlink="http://www.w3.org/1999/xlink" x="0px" y="0px"
	 viewBox="0 0 161.9 161.9" enable-background="new 0 0 161.9 161.9" xml:space="preserve">
<circle id="bkg_6_" fill="#1D9687" cx="80.9" cy="81" r="81"/>
<g id="mouth_1_">
	
		<polygon fill="#074741" stroke="#074741" stroke-width="8.8071" stroke-linecap="round" stroke-linejoin="round" stroke-miterlimit="10" points="
		49.8,71.1 55.8,92.8 93.3,92.8 109.5,68.1 75.1,57.4 	"/>
	<polyline fill="#FFDBFF" points="77.4,64.2 78.5,74 94.8,71.3 95.6,64.2 	"/>
	<polyline fill="#FFDBFF" points="61.6,75.6 73,75.6 75.3,65.5 	"/>
</g>
<path fill="#FDD08C" d="M48.4,83.9c0,0,20.5-10.6,31.7,0.7c0,0,5.7-9,17.6-10.2s17.7,0,17.7,0s6.6,18.6-10.1,31l-19.6-0.3l-16.8,6.1
	C68.9,111.4,42.5,106.7,48.4,83.9z"/>
<path fill="#FDD08C" d="M46.4,84.7c0,0-7.9-25.9,11.6-35.7l21,1c0,0,40.8-24.5,34.8,23.3c0,0-36.5-13.3-41.9-5.7
	S46.4,84.7,46.4,84.7z"/>
<g id="lip_highlight">
	<g>
		<path fill="#FFFFFF" d="M69,45.7c-2.1-0.3-4.2-0.4-6.2-0.3c-2.1,0.1-4.1,0.4-6.1,1.1c-1.9,0.7-3.8,1.6-5.4,2.8
			c-1.6,1.3-2.9,2.9-3.9,4.6c-1,1.8-1.8,3.7-2.2,5.7c-0.3,1-0.4,2-0.6,3c-0.1,1-0.2,2.1-0.3,3.1c-0.1,2.1-0.1,4.2,0,6.2
			c0.1,1,0.1,2.1,0.2,3.1c0.1,1,0.2,2.1,0.3,3.1c-0.9-4.1-1.4-8.3-1.3-12.5c0-1.1,0.1-2.1,0.2-3.2c0.2-1,0.3-2.1,0.6-3.1
			c0.4-2.1,1.2-4.1,2.3-6c1.1-1.9,2.5-3.5,4.2-4.8c1.7-1.3,3.7-2.3,5.7-2.8C60.6,44.5,65,44.6,69,45.7z"/>
	</g>
	<g>
		<path fill="#FFFFFF" d="M89.2,109c1.5,0.3,3,0.6,4.5,0.6c1.5,0.1,3,0.1,4.5-0.1c3-0.3,5.9-1.2,8.5-2.7c1.3-0.7,2.5-1.6,3.6-2.7
			c0.6-0.5,1.1-1.1,1.6-1.6c0.5-0.6,1-1.1,1.4-1.8c1.8-2.5,3.1-5.2,4.2-8.1c-0.2,0.7-0.4,1.5-0.6,2.2c-0.3,0.7-0.5,1.5-0.8,2.2
			c-0.6,1.4-1.3,2.8-2.2,4.1c-0.8,1.3-1.8,2.5-3,3.6c-1.1,1.1-2.4,2.1-3.8,2.8c-2.7,1.6-5.8,2.4-9,2.6C95.3,110.4,92.1,110,89.2,109
			z"/>
	</g>
	<g>
		<path fill="#FFFFFF" d="M70.7,54.3c-2.8,0.6-5.5,1.5-7.7,2.8c-2.3,1.3-4.1,3.2-5.5,5.4c-1.4,2.2-2.3,4.7-2.9,7.4
			c-0.6,2.7-0.9,5.5-1.3,8.3c-0.8-2.8-1.2-5.7-1-8.7c0.2-3,1-6,2.7-8.6c1.6-2.6,4.2-4.8,7-5.9C64.7,53.9,67.8,53.6,70.7,54.3z"/>
	</g>
	<g display="none">
		<path display="inline" fill="none" d="M69,88.2"/>
	</g>
	<g>
		<path fill="#FFFFFF" d="M86.5,43.7c3.6-1.4,7.5-2.1,11.4-2.1c3.9,0,7.9,1,11.1,3.4c1.6,1.2,2.9,2.8,3.9,4.5
			c0.3,0.4,0.5,0.9,0.7,1.3c0.2,0.4,0.4,0.9,0.6,1.4l0.5,1.4L115,55c0.3,0.9,0.3,1.9,0.5,2.9c0.1,1,0.2,1.9,0.2,2.9
			c0,1,0,1.9-0.1,2.9c-0.1,1-0.2,1.9-0.2,2.9c0-1,0-1.9,0-2.9c0-1-0.1-1.9-0.2-2.9c-0.1-1-0.2-1.9-0.3-2.8c-0.2-0.9-0.3-1.9-0.6-2.8
			c-1-3.6-2.8-7.2-5.8-9.4c-2.9-2.3-6.8-3.3-10.6-3.4c-1.9-0.1-3.8,0-5.7,0.3C90.3,42.8,88.4,43.2,86.5,43.7z"/>
	</g>
	<g>
		<path fill="#FFFFFF" d="M48.4,103.7c1.1,1.1,2.2,2.2,3.4,3.2c1.2,1,2.4,1.9,3.7,2.8c2.6,1.6,5.4,3,8.4,3.6c3,0.7,6.1,0.7,9.1,0
			c1.5-0.4,3-0.8,4.4-1.5c0.7-0.3,1.4-0.7,2.1-1c0.7-0.4,1.3-0.8,2-1.2c-2.4,2-5.2,3.6-8.3,4.5c-1.5,0.5-3.1,0.7-4.7,0.7
			c-1.6,0-3.2-0.2-4.8-0.5c-3.1-0.7-6.1-2.1-8.6-4C52.6,108.4,50.3,106.2,48.4,103.7z"/>
	</g>
	<g>
		<path fill="#FFFFFF" d="M61.8,91.6c-1.4,1.7-2,3.9-1.2,5.5c0.4,0.8,1,1.6,1.8,2.2c0.2,0.2,0.4,0.3,0.6,0.5l0.6,0.4
			c0.4,0.3,0.8,0.5,1.3,0.8c1.7,1,3.7,1.6,5.6,1.4c2-0.2,3.9-1.1,5.6-2.4c-1.1,1.9-3,3.5-5.3,4c-1.2,0.3-2.4,0.2-3.5,0.1
			c-0.6-0.1-1.2-0.3-1.7-0.5c-0.5-0.2-1.1-0.4-1.6-0.7c-0.5-0.3-1-0.6-1.5-0.9c-0.5-0.3-0.9-0.7-1.3-1.1c-0.8-0.8-1.6-1.8-2-3
			c-0.4-1.2-0.2-2.6,0.4-3.6C60,92.9,60.9,92.1,61.8,91.6z"/>
	</g>
	<g>
		<path fill="#FFFFFF" d="M90.5,97.7l4.6-1.3c1.5-0.4,2.9-0.9,4.2-1.5c1.3-0.6,2.5-1.4,3.2-2.5c0.4-0.6,0.6-1.2,0.8-1.9
			c0.1-0.7,0.1-1.5,0.1-2.3c0.4,0.7,0.8,1.5,0.9,2.3c0.1,0.9,0,1.8-0.3,2.6c-0.7,1.7-2.3,2.9-3.8,3.6c-1.5,0.7-3.2,1.1-4.8,1.2
			C93.8,98.1,92.1,98,90.5,97.7z"/>
	</g>
</g>
<g id="mouth">
	<g>
		<path fill="#074741" d="M33.4,82.7c1.1,1.2,2.5,1.8,4,2.2c0.8,0.1,1.5,0.3,2.3,0.3c0.8,0.1,1.5,0,2.3-0.1c3-0.4,5.8-1.7,8.5-3.1
			c2.7-1.5,5.2-3.2,7.6-5.2l1.8-1.5l0.9-0.7l0.9-0.8l3.5-3.1L65,70.8c0.3-0.4,0.6-0.6,0.8-0.9c0.3-0.3,0.6-0.5,0.9-0.8
			c0.6-0.5,1.2-1,1.8-1.3c1.3-0.8,2.6-1.5,4-2c2.8-1.1,5.7-1.6,8.6-1.7c5.8-0.2,11.6,0.9,17,2.7c2.7,0.9,5.3,1.9,7.9,2.9
			c2.6,1,5.2,2.1,7.8,3.1c1.3,0.5,2.6,1,3.9,1.5c1.3,0.5,2.6,0.9,3.9,1c1.3,0.1,2.7-0.1,4-0.4c1.4-0.3,2.7-0.6,4.1-0.9
			c-1.3,0.5-2.6,1-4,1.4c-1.3,0.4-2.7,0.8-4.2,0.9c-1.5,0-2.9-0.3-4.3-0.6c-1.4-0.4-2.7-0.8-4-1.3l-8-2.6l-4-1.3
			c-1.3-0.4-2.7-0.9-4-1.2c-5.2-1.6-10.7-2.5-16-2.3c-2.7,0.2-5.3,0.6-7.8,1.5c-1.2,0.5-2.4,1-3.5,1.7c-0.6,0.3-1.1,0.7-1.6,1.1
			c-0.5,0.4-1,0.9-1.3,1.2l-0.1,0.2l0,0c-2.4,2-4.8,4.2-7.5,6c-1.3,1-2.7,1.8-4,2.6c-1.3,0.9-2.8,1.5-4.2,2.3
			c-2.9,1.3-6,2.4-9.3,2.5c-0.8,0-1.6,0.1-2.4-0.1c-0.8-0.1-1.6-0.3-2.4-0.6C35.7,84.9,34.3,84,33.4,82.7z"/>
	</g>
	<g>
		<path fill="#074741" d="M46.4,65.5c-0.2-3.5,0.7-7.2,2.6-10.3c1.9-3.1,5.1-5.6,8.6-6.8c1.8-0.6,3.6-1,5.4-1.2
			c0.9-0.1,1.8-0.1,2.7-0.2c0.9,0,1.8,0,2.7,0.1c3.6,0.2,7.2,1,10.7,1.9L78,49.1c3.2-1.9,6.5-3.4,10-4.6c3.5-1.1,7.2-1.9,10.9-1.6
			c1.9,0.1,3.8,0.5,5.5,1.2c1.8,0.7,3.4,1.8,4.7,3.1c1.3,1.3,2.4,2.9,3.1,4.5c0.4,0.8,0.7,1.7,1,2.5c0.3,0.9,0.4,1.7,0.7,2.6
			c-0.7-1.6-1.4-3.3-2.4-4.7c-0.9-1.5-2-2.8-3.4-3.9c-2.6-2.2-5.9-3.1-9.3-3.1c-3.3,0-6.7,0.8-9.9,2c-3.2,1.1-6.4,2.7-9.3,4.4
			L79,51.9l-0.6-0.2c-3.3-0.9-6.7-1.6-10.1-1.9c-3.4-0.4-6.8-0.2-10,0.7c-3.2,0.9-6.1,2.7-8.1,5.4C48.1,58.6,46.9,62,46.4,65.5z"/>
	</g>
	<g>
		<path fill="#074741" d="M48.4,96.3c1.8,2.8,3.8,5.3,6.1,7.6c2.3,2.3,4.9,4.1,7.7,5.3c2.9,1.2,5.9,1.3,8.9,0.6
			c2.9-0.8,5.6-2.3,8.1-4.3l0.1-0.1l0.1,0c0.6-0.4,1-0.5,1.6-0.8c0.5-0.2,1-0.4,1.5-0.5c1-0.3,2.1-0.4,3.1-0.5
			c2.1-0.1,4.2,0.1,6.2,0.5l1.5,0.4l1.3,0.3c0.9,0.1,1.7,0.3,2.6,0.3c1.8,0,3.5-0.3,5.3-0.8c3.4-1.1,6.5-3.3,8.9-6.2
			c2.4-2.9,4.1-6.4,5.3-10c-0.5,3.8-1.8,7.6-4,11c-1.1,1.7-2.5,3.1-4,4.5c-1.6,1.3-3.4,2.3-5.3,3.1c-1.9,0.8-4,1.1-6.1,1.2
			c-1,0-2.1-0.1-3.1-0.2l-1.6-0.3l-1.3-0.3c-1.8-0.4-3.6-0.5-5.3-0.4c-0.9,0.1-1.7,0.2-2.6,0.4c-0.4,0.1-0.8,0.2-1.2,0.4
			c-0.4,0.1-0.8,0.3-1,0.5l0.1-0.1c-2.7,2.1-5.8,3.9-9.3,4.6c-1.7,0.4-3.5,0.5-5.3,0.3c-1.8-0.2-3.5-0.7-5.1-1.5
			c-3.2-1.5-5.7-3.8-7.9-6.4C51.4,102.2,49.7,99.4,48.4,96.3z"/>
	</g>
	<g>
		<path fill="#074741" d="M52.8,81.7c2.3-0.7,4.6-1.3,7-1.7c2.4-0.5,4.8-0.8,7.2-1c2.4-0.2,4.9-0.2,7.4,0.1c2.4,0.3,5.1,0.9,7.3,2.9
			l-2-0.1c2.5-2.1,5.2-3.7,8.1-5.2c2.8-1.5,5.9-2.5,8.9-3.3c3.1-0.8,6.3-1.1,9.5-1c0.8,0,1.6,0.1,2.4,0.2c0.8,0.1,1.6,0.3,2.3,0.4
			l1.2,0.2l1.1,0.4l2.2,0.8l-2.3-0.3l-1.1-0.2l-1.2,0c-0.8,0-1.5-0.1-2.3-0.1l-2.3,0.1c-3,0.3-6,0.8-8.8,1.8
			c-2.9,0.9-5.6,2.1-8.3,3.5c-1.3,0.7-2.6,1.5-3.9,2.3c-1.3,0.8-2.5,1.7-3.6,2.5l-1.1,0.8l-0.9-0.9c-0.6-0.6-1.5-1.1-2.5-1.5
			c-1-0.4-2.1-0.7-3.2-0.9c-2.2-0.4-4.6-0.6-6.9-0.6c-2.3,0-4.7,0-7.1,0.1C57.6,81.4,55.2,81.6,52.8,81.7z"/>
	</g>
	<g>
		<path fill="#074741" d="M61,76c1.1-0.4,2.1-0.7,3.2-0.9c1.1-0.2,2.1-0.4,3.2-0.6c2.1-0.3,4.3-0.4,6.4-0.4l-1,0.5
			c0,0.1,0,0,0.1-0.1c0,0,0.1-0.1,0.1-0.2c0.1-0.1,0.2-0.2,0.2-0.4c0.2-0.3,0.3-0.6,0.4-0.9c0.2-0.6,0.4-1.3,0.5-2
			c0.2-0.7,0.2-1.4,0.3-2.2c0-0.4,0.1-0.8,0.1-1.2c0-0.4,0-0.8,0.1-1.2c0.9,1.4,1.4,2.9,1.6,4.6c0.1,0.8,0.1,1.7-0.1,2.6
			c-0.1,0.4-0.2,0.9-0.4,1.3c-0.1,0.2-0.2,0.4-0.3,0.7c-0.1,0.1-0.1,0.2-0.2,0.3c-0.1,0.1-0.1,0.2-0.3,0.4L74.7,77L74,77
			c-2.1,0.2-4.3,0.2-6.5,0c-1.1-0.1-2.2-0.2-3.2-0.3C63.2,76.6,62.1,76.4,61,76z"/>
	</g>
	<g>
		<path fill="#074741" d="M77.4,66.6l0.9,3.5c0.3,1.1,0.6,2.3,1.1,3c0.1,0.2,0.2,0.3,0.2,0.2c0,0-0.2-0.1-0.3-0.1l0.4,0l1.7-0.2
			l3.5-0.4c2.3-0.3,4.6-0.5,6.8-1c0.5-0.1,1.1-0.3,1.6-0.4c0.5-0.2,0.9-0.4,1.1-0.6c0.1-0.1,0.1-0.1,0.1-0.2l0.1-0.4
			c0.1-0.3,0.2-0.6,0.3-0.9c0.2-0.6,0.4-1.1,0.7-1.7c0.1,0.6,0.1,1.2,0.2,1.8c0,0.3,0,0.6,0,0.9l0,0.5c0,0.1,0,0.4-0.1,0.6
			c-0.3,0.9-1,1.3-1.5,1.7c-0.6,0.4-1.2,0.7-1.8,0.9c-2.4,1-4.8,1.4-7.2,1.7c-1.2,0.1-2.4,0.2-3.6,0.2c-0.6,0-1.2,0-1.8,0l-0.5,0
			c-0.4,0-0.8-0.2-1.1-0.4c-0.6-0.4-0.7-0.9-0.9-1.2c-0.5-1.5-0.4-2.7-0.4-3.9C76.9,69,77.1,67.8,77.4,66.6z"/>
	</g>
</g>
</svg>
