<?xml version="1.0" encoding="utf-8"?>
<!-- Generator: Adobe Illustrator 21.1.0, SVG Export Plug-In . SVG Version: 6.00 Build 0)  -->
<svg version="1.1" id="touch" xmlns="http://www.w3.org/2000/svg" xmlns:xlink="http://www.w3.org/1999/xlink" x="0px" y="0px"
	 viewBox="0 0 161.8 161.9" enable-background="new 0 0 161.8 161.9" xml:space="preserve">
<circle id="bkg_2_" fill="#1D9687" cx="80.8" cy="81" r="81"/>
<g id="littleBubble">
	<polyline fill="#FFFFFF" points="58.3,124.8 62.8,120.4 55.2,119.2 	"/>
	<path fill="#FFFFFF" d="M41.2,108.4c0,6,9.3,11,21.5,12c1.6,0.1,3.2,0.2,4.8,0.2c14.5,0,26.3-5.5,26.3-12.2S82.1,96.2,67.6,96.2
		S41.2,101.7,41.2,108.4z"/>
</g>
<path id="bigBubble" fill="#FFFFFF" stroke="#1D9687" stroke-width="2" stroke-miterlimit="10" d="M136.6,75.3
	c0-14.6-24.5-26.4-54.7-26.4S27.2,60.7,27.2,75.3c0,14.6,24.5,26.4,54.7,26.4c3.4,0,6.7-0.2,10-0.4l9.3,9.4l6.5-12.1l0,0
	C124.9,94.1,136.6,85.4,136.6,75.3z"/>
<text id="helloText" transform="matrix(1 0 0 1 55.2305 80.9574)" fill="#339F65" font-family="'MyanmarText-Bold'" font-size="17.3482px">HELLO</text>
</svg>
