<?xml version="1.0" encoding="utf-8"?>
<!-- Generator: Adobe Illustrator 21.1.0, SVG Export Plug-In . SVG Version: 6.00 Build 0)  -->
<svg version="1.1" id="cam" xmlns="http://www.w3.org/2000/svg" xmlns:xlink="http://www.w3.org/1999/xlink" x="0px" y="0px"
	 viewBox="0 0 161.9 161.9" enable-background="new 0 0 161.9 161.9" xml:space="preserve">
<circle id="bkg_5_" fill="#1D9687" cx="80.4" cy="81" r="81"/>
<g id="line_2_">
	
		<circle fill="none" stroke="#FDD08C" stroke-width="4" stroke-miterlimit="10" stroke-dasharray="11.7807,11.7807" cx="80.5" cy="81.4" r="67.5"/>
</g>
<g id="tshirt">
	<path fill="#BFB980" d="M115.7,40.3c-3.6-2.8-10-5.1-14.6-6.5c-0.4-0.1-0.9-0.1-1.3,0.2c-0.4,0.2-0.6,0.6-0.7,1.1
		c-1.1,6.7-9.7,12.6-18.5,12.6c-8.8,0-17.5-5.9-18.5-12.6c-0.1-0.4-0.3-0.8-0.7-1.1c-0.4-0.2-0.8-0.3-1.3-0.2
		c-4.7,1.4-11,3.6-14.6,6.4c-6.4,5-8.2,30.8-8.4,33.8c0,0.7,0.4,1.3,1,1.6c0.3,0.1,6.3,2.4,12.8,3c0.4,0,0.9-0.1,1.2-0.4
		c0.3-0.3,0.5-0.7,0.5-1.2V64.8c0-0.8,0-1.6-0.1-2.3c0-0.2,0-0.4,0-0.7c0-0.5-0.1-1-0.1-1.5c0-0.2-0.1-0.4-0.1-0.6
		c-0.1-0.5-0.2-1-0.3-1.5c0-0.1,0-0.2-0.1-0.4c-0.1-0.6-0.3-1.1-0.5-1.6c-0.4-1.2-0.9-2.2-1.5-2.8c-0.6-0.6-0.6-1.6,0-2.2
		s1.6-0.6,2.2,0c3.1,3.1,3.6,9.8,3.6,13.5v53.6c0,0.7,0.5,1.3,1.2,1.5c3.5,0.9,11.3,2.4,23.7,2.4c12.7,0,20.6-2.4,23.9-3.7
		c0.6-0.2,1-0.8,1-1.4V64.8c0-3.7,0.5-10.4,3.6-13.5c0.6-0.6,1.6-0.6,2.2,0c0.6,0.6,0.6,1.6,0,2.2c-0.6,0.6-1.1,1.5-1.5,2.8
		c-0.2,0.5-0.3,1-0.5,1.6c0,0.1,0,0.2-0.1,0.4c-0.1,0.5-0.2,1-0.3,1.5c0,0.2-0.1,0.4-0.1,0.6c-0.1,0.5-0.1,1-0.1,1.5
		c0,0.2,0,0.4,0,0.7c0,0.7-0.1,1.5-0.1,2.3v12.3c0,0.4,0.2,0.9,0.5,1.2c0.3,0.3,0.7,0.4,1,0.4c0.1,0,0.1,0,0.2,0
		c6.6-0.7,12.6-2.9,12.8-3c0.6-0.2,1-0.9,1-1.6C123.8,71.1,122,45.3,115.7,40.3z"/>
</g>
<text id="shopText" transform="matrix(0.8747 0 0 1 57.7141 71.3707)" fill="#1D9687" font-family="'MyanmarText-Bold'" font-size="19.4697px">SHOP</text>
</svg>
