<?xml version="1.0" encoding="utf-8"?>
<!-- Generator: Adobe Illustrator 21.1.0, SVG Export Plug-In . SVG Version: 6.00 Build 0)  -->
<svg version="1.1" id="touch" xmlns="http://www.w3.org/2000/svg" xmlns:xlink="http://www.w3.org/1999/xlink" x="0px" y="0px"
	 viewBox="0 0 161.9 205.3" enable-background="new 0 0 161.9 205.3" xml:space="preserve">
<circle id="bkg" fill="#1D9687" cx="81" cy="81" r="81"/>
<g id="hand">
	<path id="solid_colour" fill="#FDD08C" d="M60.1,75.1c0,0-11.4,30.4-6.1,54.9s-0.8,34.5-0.5,40.9c0.4,6.4,13.1,31.3,30.8,34.5
		c0,0,13.8-6-1.1-36.6c-0.2-0.3-0.3-0.6-0.5-1c0,0-2.4-22,21.1-53.2c0,0,7.1-6.6,11.6-9.3s2.8-8,2.8-8l0.3-9.7l-1.4-3.3
		c0,0-3.9-1.3-5.6,13l-0.7,0.9c0,0-8.2,2-9.1,6.4c0,0,3.6-19.9,3.7-20.3c0.1-0.4-4.4-6.5-4.4-6.5l1.1-5.9l-1.1-5.8L99.3,63v-8.9
		l-2.3-17.5L93.4,38l-3.1,5.2l1.7,9.9l-5.1-2.6c0,0-2.9,1-1.2,4.7s4.1,4.6,4.1,4.6l-1.6,9l-0.3,2.4L77,83.1c0,0-9.8,10.8-9.3,14
		l-2.1-7.3l3-8.2c0,0,3.6-12.1-6.5-18.1L60.1,75.1z"/>
	<linearGradient id="SVGID_1_" gradientUnits="userSpaceOnUse" x1="92.4479" y1="74.3689" x2="100.3731" y2="74.3689">
		<stop  offset="4.486712e-03" style="stop-color:#000000"/>
		<stop  offset="0.9406" style="stop-color:#FFFFFF;stop-opacity:0"/>
	</linearGradient>
	<path fill="url(#SVGID_1_)" d="M92.5,84.7l1.6,3l6.3-23.8L99.9,61l-2.9,8.1C97.1,69.1,91.9,83.6,92.5,84.7z"/>
	<linearGradient id="SVGID_2_" gradientUnits="userSpaceOnUse" x1="98.5843" y1="83.5116" x2="102.7152" y2="83.5116">
		<stop  offset="4.486712e-03" style="stop-color:#000000"/>
		<stop  offset="0.9406" style="stop-color:#FFFFFF;stop-opacity:0"/>
	</linearGradient>
	<polygon fill="url(#SVGID_2_)" points="100.4,92.2 98.6,90.1 101.1,74.8 102.7,80.5 	"/>
	<linearGradient id="SVGID_3_" gradientUnits="userSpaceOnUse" x1="102.3114" y1="94.9703" x2="115.1857" y2="94.9703">
		<stop  offset="4.486712e-03" style="stop-color:#000000"/>
		<stop  offset="0.9406" style="stop-color:#FFFFFF;stop-opacity:0"/>
	</linearGradient>
	<path opacity="0.58" fill="url(#SVGID_3_)" d="M103.2,102.2l0.8,0.3c0.6,0.2,1.3,0,1.6-0.6c0.9-1.4,2.9-4,6.4-4.5
		c0.5-0.1,1-0.5,1.1-1l1.9-7.5c0.4-1.7-2.1-2.4-2.6-0.8c-0.5,1.6-0.8,3.4-1,5.7c0,0.5-0.3,1-0.8,1.2c-1.8,0.8-6.2,2.8-8.1,4.9
		C102,100.7,102.3,101.9,103.2,102.2z"/>
	<g opacity="0.6">
		<path fill="#FEECD1" d="M117.4,91.1c0,3.2-0.7,6.5-2.7,9.2c-0.3,0.3-0.5,0.7-0.8,0.9l-0.5,0.4c-0.2,0.1-0.3,0.3-0.5,0.4
			c-0.3,0.3-0.7,0.5-1.1,0.7l-1.1,0.6c-1.3,0.7-2.5,1.7-3.7,2.8c-2.3,2.1-4.3,4.6-6.3,7c-2,2.5-3.9,5.1-5.6,7.7l0.1-0.2
			c-2.4,6.1-4.8,12.2-7.2,18.2l-3.7,9.1l-3.7,9.1l0.1-0.5c-0.1,2.7,0.1,5.5,0.4,8.3c0.3,2.8,0.7,5.5,1.3,8.2c0.6,2.7,1.3,5.4,2.2,8
			c0.8,2.7,2,5.2,3.2,7.7l0.1,0.2l0,0.2c0,1.2-0.1,2.2-0.4,3.3c-0.3,1.1-0.7,2.2-1.5,3.1c-0.4,0.5-0.9,0.9-1.5,1.1
			c-0.6,0.2-1.2,0.3-1.8,0.2c-1.2-0.1-2.2-0.6-3.2-1.1c-1.9-1.1-3.4-2.5-4.9-4c-1.5-1.5-2.8-3.1-4.1-4.7c1.5,1.5,3,2.9,4.5,4.2
			c1.6,1.3,3.2,2.6,5,3.5c0.9,0.4,1.8,0.8,2.7,0.8c0.9,0,1.6-0.3,2.1-1c1-1.4,1.2-3.5,1.2-5.4l0.1,0.4c-1.4-2.5-2.7-5.1-3.7-7.8
			c-1-2.7-1.9-5.4-2.6-8.3c-0.7-2.8-1.2-5.6-1.6-8.5c-0.4-2.9-0.5-5.7-0.5-8.7l0-0.2l0.1-0.3l3.7-9.1l3.7-9.1
			c2.5-6.1,5.1-12.1,7.6-18.1l0.1-0.1l0.1-0.1c1.9-2.6,3.9-5.1,6.1-7.6c2.1-2.4,4.4-4.8,6.9-6.9c1.3-1,2.6-2,4.2-2.7l1.1-0.5
			c0.4-0.1,0.7-0.3,1-0.5c0.2-0.1,0.3-0.2,0.5-0.3l0.4-0.4c0.3-0.2,0.6-0.5,0.8-0.8C116.1,97.5,117.1,94.3,117.4,91.1z"/>
	</g>
	<g opacity="0.6">
		<path fill="#FEECD1" d="M102.1,81.6c1.2,0.8,2,2.2,2.2,3.8c0,0.4,0,0.8,0,1.2l-0.1,0.9c-0.1,0.6-0.2,1.2-0.3,1.9
			c-0.2,1.3-0.5,2.5-0.9,3.8c-0.4,1.2-0.9,2.5-1.7,3.7c-0.5-1.4-0.6-2.7-0.7-4c0-1.3,0-2.6,0.3-3.9c0.1-0.7,0.3-1.3,0.5-2
			c0.1-0.3,0.2-0.7,0.3-1c0.1-0.2,0.2-0.5,0.3-0.7C102.2,84.2,102.3,83,102.1,81.6z"/>
	</g>
	<g>
		<path fill="#FEECD1" d="M100.4,65.8c0.1,1.9,0,3.8-0.2,5.6c-0.2,1.8-0.5,3.6-0.8,5.4c-0.3,1.8-0.7,3.5-1.1,5.3
			c-0.4,1.8-0.9,3.5-1.2,5.3c-0.9-1.7-1.1-3.7-1.1-5.6c0-1.9,0.2-3.7,0.5-5.6c0.3-1.8,0.8-3.6,1.4-5.3
			C98.5,69.1,99.3,67.4,100.4,65.8z"/>
	</g>
	<g>
		<path fill="#FEECD1" d="M96.9,41.5c1.2,3.8,1.8,7.8,2,11.9c0.1,2,0,4.1-0.1,6.1c-0.1,1-0.2,2-0.5,3.1L98,64.1l-0.4,1.5
			c-0.1,0.5-0.3,1-0.6,1.5c-0.2,0.5-0.4,1-0.7,1.5L95.5,70c-0.3,0.5-0.5,0.8-0.8,1.2c-1,1.5-1.7,3.2-2.3,5c-1,3.6-1.1,7.5-0.5,11.5
			c-1.8-3.6-2.5-7.9-1.8-12c0.3-2.1,1.1-4.1,2.1-6c0.2-0.4,0.6-1,0.8-1.3l0.6-1.2c0.2-0.4,0.4-0.8,0.5-1.2c0.2-0.4,0.4-0.8,0.5-1.3
			c1.2-3.5,1.6-7.4,1.9-11.3C96.8,49.5,96.9,45.5,96.9,41.5z"/>
	</g>
</g>
<path id="anhk" fill="#074741" d="M84.9,124.7c0,0-2.4-1.3,1.9-4.3s16.3-13.3,7.4-18.6s-13.7-1.5-13.4,18.5c0,0,0.3,3.9-2.7,2.6
	c-3-1.3-9.3-3.7-9.3-3.7s-2.7-2.9-2.7,5.5c0,0,0.5,1.4,2.6,1.5c2.1,0.1,9.9,0,9.9,0s-5,17.2-10.2,22.4c0,0-4.7,3.3-0.3,3.8
	c0,0,11.1,4.2,9-0.3c-2.1-4.5,2.5-19.5,2.5-19.5l2.1-5.7l8.7,4.8l4-5.7L84.9,124.7z"/>
<path id="skin" fill="#FDD08C" d="M84.3,115.8c0,0-1-13.3,1.7-13.2c2.7,0,12.9,1.6,8.3,6.6C94.2,109.2,84.4,122.7,84.3,115.8z"/>
<circle id="orb" fill="#074741" cx="83.4" cy="23" r="10.6"/>
</svg>
