<?xml version="1.0" encoding="utf-8"?>
<!-- Generator: Adobe Illustrator 21.1.0, SVG Export Plug-In . SVG Version: 6.00 Build 0)  -->
<svg version="1.1" id="Layer_1" xmlns="http://www.w3.org/2000/svg" xmlns:xlink="http://www.w3.org/1999/xlink" x="0px" y="0px"
	 viewBox="0 0 161.9 161.9" enable-background="new 0 0 161.9 161.9" xml:space="preserve">
<circle id="bkg_1_" fill="#1D9687" cx="81" cy="81" r="81"/>
<circle id="skin" fill="#FDD08C" cx="82" cy="75" r="44"/>
<linearGradient id="eye_whites_1_" gradientUnits="userSpaceOnUse" x1="81.3707" y1="96.7373" x2="81.3707" y2="52.678">
	<stop  offset="0" style="stop-color:#FFFFFF;stop-opacity:0.7"/>
	<stop  offset="0.1456" style="stop-color:#FBFBFB;stop-opacity:0.7437"/>
	<stop  offset="0.3011" style="stop-color:#EEEEEE;stop-opacity:0.7903"/>
	<stop  offset="0.4613" style="stop-color:#D8D9D9;stop-opacity:0.8384"/>
	<stop  offset="0.6246" style="stop-color:#BBBBBC;stop-opacity:0.8874"/>
	<stop  offset="0.7904" style="stop-color:#949596;stop-opacity:0.9371"/>
	<stop  offset="0.9561" style="stop-color:#666768;stop-opacity:0.9868"/>
	<stop  offset="1" style="stop-color:#58595B"/>
</linearGradient>
<path id="eye_whites" fill="url(#eye_whites_1_)" d="M42,68.3c0,0,8.6,27.8,39.9,28.4s38.8-30.7,38.7-31.4S82,35.3,42,68.3z"/>
<path id="green" fill="#339F65" d="M59.3,57.2c0,0-5.7,22.2,22.7,24.9c0,0,21.6,2.7,21.9-25.7C103.9,56.4,89.5,48,59.3,57.2z"/>
<path d="M68.4,55.9c0,0-2.4,21.9,17.8,17c0,0,11-3.7,9.2-19.1C95.3,53.7,70,50.3,68.4,55.9z"/>
</svg>
